<?xml version="1.0" encoding="UTF-8"?>
<!DOCTYPE svg PUBLIC "-//W3C//DTD SVG 1.1//EN" "http://www.w3.org/Graphics/SVG/1.1/DTD/svg11.dtd">
<!-- Creator: CorelDRAW 2020 (64 Bit) -->
<svg xmlns="http://www.w3.org/2000/svg" xml:space="preserve" width="17.6681mm" height="19.9999mm" version="1.1" style="shape-rendering:geometricPrecision; text-rendering:geometricPrecision; image-rendering:optimizeQuality; fill-rule:evenodd; clip-rule:evenodd"
viewBox="0 0 196.18 222.07"
 xmlns:xlink="http://www.w3.org/1999/xlink"
 xmlns:xodm="http://www.corel.com/coreldraw/odm/2003">
 <defs>
  <style type="text/css">
   <![CDATA[
    .fil0 {fill:#0170BA}
    .fil1 {fill:#29A9DF}
    .fil2 {fill:#CFCFCF}
   ]]>
  </style>
 </defs>
 <g id="Camada_x0020_1">
  <metadata id="CorelCorpID_0Corel-Layer"/>
  <g id="_2099624488448">
   <polygon class="fil0" points="-0,0 196.18,0 178.11,199.85 97.74,222.07 17.74,199.69 "/>
   <polygon class="fil1" points="97.76,16.3 178.24,16.3 162.64,186.98 97.76,205.6 "/>
   <polygon class="fil2" points="106.78,90.8 132.83,90.8 159.02,90.8 159.02,90.8 159.02,90.8 151.73,165.85 97.9,179.85 43.69,165.69 39.98,127.38 66.52,127.33 68.63,147.22 98.3,154.6 127.01,147.38 130.13,115.25 64.68,115.11 56.28,115.11 38.55,115.11 37.84,115.11 35.7,90.09 97.76,62.34 33.35,62.56 31.53,41.22 31.6,41.22 58.37,41.22 163.36,41.22 161.38,65.54 "/>
  </g>
 </g>
</svg>
