<?xml version="1.0" encoding="UTF-8"?>
<!DOCTYPE svg PUBLIC "-//W3C//DTD SVG 1.1//EN" "http://www.w3.org/Graphics/SVG/1.1/DTD/svg11.dtd">
<!-- Creator: CorelDRAW 2020 (64 Bit) -->
<svg xmlns="http://www.w3.org/2000/svg" xml:space="preserve" width="17.6681mm" height="19.9999mm" version="1.1" style="shape-rendering:geometricPrecision; text-rendering:geometricPrecision; image-rendering:optimizeQuality; fill-rule:evenodd; clip-rule:evenodd"
viewBox="0 0 196.18 222.07"
 xmlns:xlink="http://www.w3.org/1999/xlink"
 xmlns:xodm="http://www.corel.com/coreldraw/odm/2003">
 <defs>
  <style type="text/css">
   <![CDATA[
    .fil0 {fill:#E44D26}
    .fil2 {fill:#EBEBEB}
    .fil1 {fill:#F16529}
   ]]>
  </style>
 </defs>
 <g id="Camada_x0020_1">
  <metadata id="CorelCorpID_0Corel-Layer"/>
  <g id="_2099619831120">
   <polygon class="fil0" points="-0,0 196.18,0 178.11,199.85 97.74,222.07 17.74,199.69 "/>
   <polygon class="fil1" points="97.76,16.3 178.24,16.3 162.64,186.98 97.76,205.6 "/>
   <polygon class="fil2" points="65.13,90.8 65.64,90.8 130.27,90.8 154.57,90.8 154.57,90.8 154.57,90.8 147.81,165.85 97.87,179.86 47.58,165.69 44.13,127.38 68.76,127.33 70.71,147.22 98.24,154.6 124.87,147.38 127.76,115.25 67.05,115.11 59.25,115.11 42.81,115.11 42.15,115.11 36.3,41.22 36.37,41.22 61.2,41.22 158.59,41.22 156.76,65.54 63.28,65.54 63.12,65.54 "/>
  </g>
 </g>
</svg>
