<?xml version="1.0" encoding="UTF-8"?>
<!DOCTYPE svg PUBLIC "-//W3C//DTD SVG 1.1//EN" "http://www.w3.org/Graphics/SVG/1.1/DTD/svg11.dtd">
<!-- Creator: CorelDRAW 2020 (64 Bit) -->
<svg xmlns="http://www.w3.org/2000/svg" xml:space="preserve" width="20mm" height="20mm" version="1.1" style="shape-rendering:geometricPrecision; text-rendering:geometricPrecision; image-rendering:optimizeQuality; fill-rule:evenodd; clip-rule:evenodd"
viewBox="0 0 255.12 255.12"
 xmlns:xlink="http://www.w3.org/1999/xlink"
 xmlns:xodm="http://www.corel.com/coreldraw/odm/2003">
 <defs>
  <style type="text/css">
   <![CDATA[
    .fil1 {fill:black}
    .fil0 {fill:#F7DF1E}
   ]]>
  </style>
 </defs>
 <g id="Camada_x0020_1">
  <metadata id="CorelCorpID_0Corel-Layer"/>
  <g id="_2099615031440">
   <rect class="fil0" x="-0" y="-0" width="255.12" height="255.12"/>
   <path class="fil1" d="M114.93 117.23l23.82 0 0 83.62c0,29.89 -24.55,34.32 -35.24,34.32 -12.37,0 -29.46,-5.13 -36.3,-21.97l19.46 -11.64c5.14,10.52 11.1,12.19 16.1,12.19 4.35,0 12.16,-1.32 12.16,-12.9l0 -83.62z"/>
   <path class="fil1" d="M209.73 146.79l18.4 -11.74c-4.75,-10.65 -16.16,-19.13 -33.7,-19.13 -12.88,0 -35.44,6.25 -35.44,31.67 0,40.83 52.32,33.82 52.32,54.65 0,5.62 -5.01,11.63 -16.44,11.63 -7.99,0 -17.4,-3.19 -23.54,-14.51l-19.27 11.31c2.41,12.29 22.81,24.48 42.78,24.48 20.4,0 40.3,-10.28 40.3,-31.74 0,-45.55 -52.56,-33.52 -52.56,-56.39 0,-6.65 6.09,-10.36 12.02,-10.37 6.03,-0.01 11.92,3.78 15.13,10.14z"/>
  </g>
 </g>
</svg>
